PathFileType	4	(X/Y/Z)	C:\Users\WrightLab\Desktop\Jo\P4V113.trc
DataRate	CameraRate	NumFrames	NumMarkers	Units	OrigDataRate	OrigDataStartFrame	OrigNumFrames
100.00	100.00	       21	19	mm	100.00	142	       567
Frame#	Time	Headset_Front			Headset_Back			Headset_Left			Headset_Right			Left_Shoulder			Right_Shoulder			Sternum			C7			Left Elbow			Right Elbow			Left Wrist			Right Wrist			Left ASIS			Right ASIS			S2			Left Knee			Right Knee			Left Ankle			Right Ankle			
		X1	Y1	Z1	X2	Y2	Z2	X3	Y3	Z3	X4	Y4	Z4	X5	Y5	Z5	X6	Y6	Z6	X7	Y7	Z7	X8	Y8	Z8	X9	Y9	Z9	X10	Y10	Z10	X11	Y11	Z11	X12	Y12	Z12	X13	Y13	Z13	X14	Y14	Z14	X15	Y15	Z15	X16	Y16	Z16	X17	Y17	Z17	X18	Y18	Z18	X19	Y19	Z19	

142	1.410				-555.64008	1039.74524	-426.45782							-333.48135	1496.70337	-362.80981	-633.09857	1515.06580	-286.72110	-450.40372	1436.96667	-225.60210	-499.36694	1541.46179	-378.02899	-220.95721	1141.36536	-346.50156	-802.75781	1182.91443	-274.20593	-273.69409	932.75653	-116.52199	-804.34680	895.07471	-160.24406	-345.79013	986.68402	-319.80118	-643.34412	1036.59607	-178.18457				-464.77420	511.65689	-363.85349	-653.41620	588.57727	-52.81353	-627.31824	41.38366	-473.07904	-713.06805	80.29123	-48.36460	
143	1.420				-555.14240	1039.52576	-416.95520							-331.99210	1494.87866	-356.09604	-629.84045	1514.58032	-275.49026	-446.17416	1435.41577	-217.95525	-496.85312	1540.35608	-367.28613	-218.92088	1139.46252	-337.96332	-799.99634	1181.92554	-261.51114	-271.09625	932.58148	-106.24226	-800.63910	894.50281	-147.84627	-344.29675	984.95160	-311.83331	-641.35974	1035.23755	-166.96216				-463.70172	511.16040	-359.27847	-649.06183	585.18262	-43.33543	-627.23462	41.70884	-472.91180	-696.91095	76.75888	-17.71744	
144	1.430				-554.58160	1038.19995	-404.97952							-328.61890	1493.59729	-345.79468	-626.34534	1513.33337	-263.87598	-443.20050	1433.87634	-207.74542	-494.31812	1538.33472	-357.04678	-216.70093	1137.48047	-329.53705	-797.72772	1181.58154	-249.09317	-266.33578	932.12616	-96.44166	-796.67944	893.02484	-137.06548	-342.30487	984.49854	-302.89618	-638.86328	1032.34790	-155.65157				-462.94543	511.14224	-354.56378	-644.65417	581.71838	-35.14574	-627.22528	42.27125	-472.84290	-678.05652	73.50705	10.46753	
145	1.440				-553.94556	1036.97351	-393.92877							-326.71716	1491.51685	-337.30569	-622.94348	1512.23279	-252.36111	-439.47260	1432.11426	-196.42177	-491.70703	1537.48828	-346.93231	-214.87195	1135.75232	-320.59232	-795.09930	1180.95203	-236.77687	-263.38358	931.40814	-87.27855	-792.96936	893.49756	-123.51055	-341.13290	982.93964	-294.62390	-636.35333	1028.79248	-145.00908				-461.25336	510.44666	-349.98462	-640.49774	578.52637	-26.03452	-627.16333	42.64425	-472.64746	-660.50085	70.98749	38.32780	
146	1.450				-553.10834	1035.79333	-382.78860							-323.80688	1489.38989	-326.93747	-619.73376	1511.37048	-241.63171	-435.69785	1430.26526	-187.21573	-488.63971	1535.52332	-336.37372	-212.31563	1133.88062	-311.89127	-792.08478	1179.96021	-224.03183	-260.71960	930.07495	-78.06757	-789.44452	892.01538	-113.32858	-339.06033	981.96472	-285.69608	-633.10321	1026.45923	-132.42340				-459.79529	509.89017	-345.26883	-635.58124	574.03851	-17.25328	-627.24963	42.76631	-472.16119	-641.14349	68.97598	65.15683	
147	1.460				-552.26514	1034.31519	-371.24023							-320.85333	1487.22742	-319.31577	-616.33612	1509.69800	-230.08138	-432.61703	1428.41602	-177.35201	-485.59180	1533.84900	-325.25742	-209.57484	1131.37805	-302.78247	-789.12512	1179.10767	-212.41917	-256.93164	928.76324	-67.09101	-784.18304	892.46545	-97.43260	-337.77325	980.38086	-276.27530	-630.50372	1024.02808	-120.96133				-458.48566	509.28690	-340.29370	-631.16071	571.15735	-8.75667	-627.32874	43.09394	-472.15994	-622.37860	67.99262	90.34946	
148	1.470				-551.32050	1032.85229	-359.92892							-318.17007	1485.25220	-309.79755	-612.44232	1508.08118	-218.26347	-427.45703	1426.70471	-166.19798	-482.87872	1532.04163	-315.16977	-207.16740	1129.29211	-293.91599	-786.25342	1177.84705	-199.30685	-254.38968	926.34412	-57.14100	-780.17731	891.26611	-84.77824	-336.04019	978.92065	-267.14328	-627.15875	1021.70087	-108.43694				-456.90341	508.05270	-334.63547	-626.14142	566.80615	0.01350	-627.04431	43.74519	-472.13165	-604.44940	68.57679	113.94592	
149	1.480	-381.48672	1636.35535	-35.72530	-550.13220	1032.00317	-349.19479							-314.39191	1482.83911	-298.42471	-608.82330	1506.61829	-207.16048	-424.20526	1424.22864	-155.35735	-479.91675	1530.09583	-304.65070	-204.21960	1126.62305	-284.40848	-783.70123	1176.70898	-187.22050	-250.45932	924.53607	-47.42887	-776.26123	890.68292	-71.49302	-334.17624	977.33746	-257.89667	-624.17413	1018.49609	-97.60966				-455.46396	507.68536	-330.27271	-621.34198	563.44037	9.58900	-627.47192	44.18485	-471.43747	-586.24854	68.39421	135.48657	
150	1.490	-376.68835	1634.78320	-23.94080	-548.92133	1030.46924	-338.04663							-311.29837	1480.34839	-287.98962	-605.31885	1505.02576	-195.80283	-421.33841	1421.52954	-145.82593	-476.44916	1528.13074	-293.74399	-201.21570	1124.13892	-274.66974	-780.67975	1175.38013	-174.97618	-246.89709	921.89203	-38.06468	-772.39410	889.85962	-58.36186	-332.17868	975.83551	-248.32780	-621.55261	1016.17731	-85.99941				-454.95837	506.85083	-324.41647	-615.45605	561.09912	20.90656	-627.68463	45.51863	-471.22626	-569.00269	68.06348	154.47098	
151	1.500	-372.62518	1632.48901	-13.42984	-547.77191	1029.17029	-326.68851							-307.82712	1477.91101	-277.92545	-601.58209	1503.08398	-183.62473	-417.06412	1419.49402	-134.57320	-472.83905	1526.05164	-282.21414	-198.21129	1121.38403	-264.89960	-777.90320	1174.54443	-162.84901	-242.47002	919.12671	-27.98614	-767.55072	890.04883	-44.03723	-329.83887	973.81091	-239.18942	-618.13342	1013.55530	-75.03747				-453.81314	506.21094	-318.78644	-609.18927	558.71228	32.67855	-627.54547	46.95369	-470.67792	-552.86011	68.07182	171.74985	
152	1.510	-366.37250	1630.64709	-0.89305	-546.64844	1027.63489	-314.93823							-305.60324	1475.73022	-269.00787	-597.31879	1501.09009	-171.67294	-412.94760	1418.30615	-123.70750	-469.18893	1523.78052	-271.44281	-194.52322	1118.77942	-254.73506	-774.49774	1173.06677	-150.73857	-238.30914	915.72620	-18.36233	-763.43823	889.07800	-29.94523	-327.85992	972.69904	-229.38309	-614.67773	1011.34601	-63.41563				-451.77609	505.47662	-312.76849	-601.83557	557.17487	44.71247	-627.57367	48.50948	-469.89227	-538.22101	67.04671	185.86748	
153	1.520	-362.84839	1629.27441	9.77583	-545.72797	1025.64587	-303.38202							-301.05557	1473.61304	-257.25021	-593.65143	1499.61658	-160.29202	-408.93686	1416.41699	-112.95232	-465.82083	1522.14490	-260.37997	-191.80830	1116.59290	-245.10358	-771.29852	1171.81628	-137.76666	-234.50812	912.32959	-8.66617	-758.83551	888.40735	-16.90863	-325.86575	971.39453	-219.92645	-610.70978	1009.79376	-51.87564				-450.44052	505.74155	-307.31171	-593.62543	556.22992	58.35512	-627.43823	49.58077	-468.66458	-524.56903	65.59229	198.00577	
154	1.530	-358.18939	1627.55200	21.83650	-544.18384	1024.47009	-292.09549							-297.32364	1470.99255	-245.33800	-590.13959	1498.31702	-148.62088	-405.34604	1414.66797	-101.31505	-461.94089	1520.17871	-248.73683	-188.20337	1114.13135	-234.72871	-767.73981	1170.20569	-125.13902	-229.57353	908.70007	0.63015	-754.08801	888.54614	0.05641	-323.52072	969.98138	-209.51453	-607.35364	1007.35120	-39.85735				-447.72931	505.07779	-301.68552	-585.24518	556.46265	72.29482	-627.24432	51.92024	-468.10318	-513.42291	64.57089	208.46408	
155	1.540	-357.30157	1627.72327	28.35085	-542.40344	1023.14667	-279.77246							-293.35388	1469.01135	-234.60297	-585.81696	1496.72681	-137.13367	-401.14346	1411.87842	-90.80283	-458.14050	1518.88672	-237.11732	-185.59927	1111.62854	-223.83701	-763.94092	1169.16589	-112.83953	-224.99771	905.06989	10.44633	-749.34509	887.02557	13.45583	-321.14133	969.04559	-199.52612	-603.21838	1005.91943	-27.21623				-445.51874	505.40036	-295.86386	-576.67212	556.97437	86.31454	-626.72040	54.11905	-466.70932	-502.69229	62.84199	216.64668	
156	1.550	-353.03079	1626.63989	40.15003	-540.25739	1021.47748	-267.67105							-290.12061	1467.14868	-224.70865	-581.85144	1495.19214	-124.34299	-397.95142	1410.79138	-78.43082	-454.46683	1517.54663	-225.76660	-181.82274	1109.73059	-214.01685	-760.07373	1167.79675	-99.73846	-220.58102	901.07874	19.32745	-745.62573	887.71240	27.13181	-317.78528	967.94275	-189.20119	-598.64911	1005.82898	-12.46111				-443.50198	505.40005	-288.91351	-567.74054	557.18207	100.58070	-625.65790	56.51910	-465.20935	-493.80688	60.81661	223.83466	
157	1.560	-348.79410	1625.51807	51.63628	-537.69409	1020.25958	-254.40147							-286.52646	1465.59351	-212.17178	-578.35919	1494.82263	-113.54079	-393.54437	1408.97095	-67.42225	-450.71088	1516.33789	-214.07710	-178.48003	1107.37085	-203.34607	-756.06342	1166.78210	-87.02924	-215.45120	897.15912	29.08293	-739.95251	887.26025	41.88543	-315.23361	966.79102	-178.85437	-594.14099	1005.35822	-0.31391				-440.81503	505.13068	-281.64191	-558.90717	557.38556	114.71136	-625.66913	59.37694	-464.52850	-486.80652	59.29520	230.42419	
158	1.570	-350.71225	1626.53296	63.39265	-534.82080	1019.48199	-241.41716							-282.63309	1463.78186	-197.70734	-574.66785	1493.63110	-100.86592	-389.80447	1408.54993	-55.42603	-446.85205	1515.33765	-202.50291	-175.42136	1105.89746	-191.85715	-752.21832	1165.41223	-73.61306	-210.92937	893.29535	37.71215	-735.69788	886.91858	56.19104	-311.90588	965.62744	-167.36406	-588.83691	1006.02893	14.29169				-437.41641	505.95285	-274.95425	-549.97375	557.59802	128.78673	-624.38135	63.41840	-463.26834	-481.76132	59.53651	235.50473	
159	1.580	-347.56802	1626.30872	75.50916	-531.84851	1018.83221	-228.33409							-279.67630	1462.73694	-190.28447	-570.41321	1492.40710	-88.91416	-386.04788	1406.48071	-44.21254	-443.33752	1514.31323	-190.77512	-172.00078	1104.49792	-180.59459	-747.98694	1165.08130	-60.26797	-205.71280	888.86438	46.00999	-730.90564	886.13593	68.94585	-307.80771	964.32452	-156.18845	-582.36298	1005.30316	28.11882				-434.58768	506.42188	-266.42294	-540.44843	556.93280	141.91710	-624.06476	66.51025	-460.80762	-478.12680	58.60305	239.89557	
160	1.590	-343.89331	1625.83752	87.20751	-529.08429	1017.87201	-213.92203							-276.84750	1461.14514	-177.53384	-566.71338	1492.15613	-77.37318	-382.90115	1406.13318	-31.21105	-440.00174	1513.41797	-179.28625	-169.22481	1103.89636	-170.00848	-743.46075	1164.03467	-47.45503	-200.23935	885.43524	55.04278	-726.21326	886.14709	83.37535	-304.51450	963.67493	-145.16899	-576.06641	1006.25323	43.24175				-431.52509	506.87741	-258.13907	-532.03973	556.44183	155.46349	-623.43280	70.82746	-458.75336	-474.97598	57.55654	245.25401	
161	1.600	-339.71808	1625.23962	98.59972	-525.93237	1018.03210	-199.98605							-272.93057	1461.39429	-166.52118	-563.17194	1491.48401	-64.46393	-378.31012	1406.47546	-19.23821	-436.64059	1512.56555	-167.45567	-165.24982	1103.37561	-158.55083	-739.47003	1163.19531	-34.25444	-195.48824	881.82947	63.05508	-720.33337	885.47888	98.54786	-299.48538	962.96356	-133.63815	-569.23828	1006.83606	56.47693				-427.44299	507.78854	-248.68402	-523.64984	556.15149	168.09967	-621.15222	75.20670	-455.89612	-471.99631	57.60268	248.72906	
162	1.610	-336.81714	1625.94446	110.87156	-522.55457	1018.62085	-187.22705							-269.67081	1460.57996	-156.35321	-559.50110	1491.07483	-52.46805	-374.09769	1406.70044	-6.98915	-433.77039	1512.66602	-156.39220	-162.66884	1102.97437	-147.56273	-735.04633	1162.65295	-21.20166	-190.00870	878.28790	71.01775	-714.93933	885.77747	111.74401	-295.37674	961.92688	-123.38334	-561.84772	1008.88788	70.63174				-423.48285	507.94543	-237.66826	-514.92645	556.65405	180.16510	-620.07477	79.61424	-452.82504	-470.55548	57.20575	251.71294	
